<svg width="18" height="20" viewBox="0 0 18 20" fill="none" xmlns="http://www.w3.org/2000/svg">
<path d="M0.818193 20C0.601195 20 0.393084 19.9122 0.239643 19.7559C0.0862024 19.5996 0 19.3877 0 19.1667V0.833197C2.4342e-05 0.688387 0.0370974 0.546083 0.107565 0.420311C0.178033 0.294538 0.279463 0.18964 0.401858 0.115954C0.524253 0.0422674 0.663388 0.00233738 0.805549 9.95361e-05C0.94771 -0.00213831 1.08799 0.0333933 1.21256 0.103192L17.5764 9.26992C17.7047 9.34186 17.8117 9.44755 17.8862 9.57595C17.9607 9.70436 18 9.85078 18 9.99993C18 10.1491 17.9607 10.2955 17.8862 10.4239C17.8117 10.5523 17.7047 10.658 17.5764 10.7299L1.21256 19.8967C1.09176 19.9644 0.956099 20 0.818193 20Z" fill="#202020"/>
</svg>
